<svg width="403" height="478" viewBox="0 0 403 478" fill="none" xmlns="http://www.w3.org/2000/svg">
<g filter="url(#filter0_di_136_2)">
<path fill-rule="evenodd" clip-rule="evenodd" d="M282.625 0L109.276 132.189L71.1074 161.295L302.742 465.054L340.911 435.948L138.382 170.358L311.731 38.1686L282.625 0ZM39.9152 186.339L1 215.785L1.00582 215.792L2.42824 467.357L50.4275 467.086L49.3662 278.788L152.07 412.574L190.239 383.469L39.9152 186.339ZM221.636 213.766L363.178 105.832L392.276 143.99L392.281 143.99L392.281 143.997L392.284 144.001L392.281 144.003L393.577 373.075L345.579 373.346L344.491 180.446L250.742 251.935L221.636 213.766Z" fill="white"/>
</g>
<defs>
<filter id="filter0_di_136_2" x="0.5" y="0" width="403.076" height="477.856" filterUnits="userSpaceOnUse" color-interpolation-filters="sRGB">
<feFlood flood-opacity="0" result="BackgroundImageFix"/>
<feColorMatrix in="SourceAlpha" type="matrix" values="0 0 0 0 0 0 0 0 0 0 0 0 0 0 0 0 0 0 127 0" result="hardAlpha"/>
<feOffset dx="4" dy="6"/>
<feGaussianBlur stdDeviation="2.25"/>
<feComposite in2="hardAlpha" operator="out"/>
<feColorMatrix type="matrix" values="0 0 0 0 1 0 0 0 0 1 0 0 0 0 1 0 0 0 0.1 0"/>
<feBlend mode="normal" in2="BackgroundImageFix" result="effect1_dropShadow_136_2"/>
<feBlend mode="normal" in="SourceGraphic" in2="effect1_dropShadow_136_2" result="shape"/>
<feColorMatrix in="SourceAlpha" type="matrix" values="0 0 0 0 0 0 0 0 0 0 0 0 0 0 0 0 0 0 127 0" result="hardAlpha"/>
<feOffset dx="12" dy="5"/>
<feGaussianBlur stdDeviation="5"/>
<feComposite in2="hardAlpha" operator="arithmetic" k2="-1" k3="1"/>
<feColorMatrix type="matrix" values="0 0 0 0 0.465 0 0 0 0 0.4433 0 0 0 0 0.4433 0 0 0 0.29 0"/>
<feBlend mode="normal" in2="shape" result="effect2_innerShadow_136_2"/>
</filter>
</defs>
</svg>
